Patient4_TMGait_0pt8_01_left_25_EMG.mot
version=1
nRows=26
nColumns=33
inDegrees=no
endheader
time	1LAddLong	2LGlutMax	3LGlutMed	4LIliopsoas	5LSemiMemb	6LBicFemLong	7LRecFem	8LVastMed	9LVastLat	10LGasMed	11LTibAnt	12lTibPost	13LPeroneusLong	14LSol	15LExtDigLong	16LFlexDigLong	17RAddLong	18RGlutMax	19RGlutMed	20RIliopsoas	21RSemiMemb	22RBicFemLong	23RRecFem	24RVastMed	25RVastLat	26RGasMed	27RTibAnt	28RTibPost	29RPeroneusLong	30RSol	31RExtDigLong	32RFlexDigLong
28.53	0.047455	0.34744	-0.037994	-0.013428	-0.079803	-0.019989	-0.097961	0.003967	0.26688	-0.024414	0.008698	0.001526	0.033569	0.002441	-0.001678	0.010681	-0.00412	-0.41779	-0.15106	0.28122	0.014954	-0.091095	-0.15091	0.014038	0.005951	0.011292	-0.075531	0.013275	0.62134	-0.068054	0.003357	-0.009918
28.531	-0.001831	0.36423	-0.024719	0.005035	0.011292	-0.010986	-0.10819	0.003204	0.25909	-0.022278	0.000458	-0.000763	0.010071	0.016785	0.00351	-0.001526	-0.020142	-0.47974	-0.1152	0.17609	-0.082092	0.053558	-0.18631	0.006714	-0.03418	0.00885	-0.89706	-0.00473	0.37338	-0.44662	-0.005493	-0.008698
28.532	-0.0177	0.36133	-0.026855	0.01709	0.053864	-0.018616	-0.09552	0.003662	0.25497	-0.0383	-0.000305	-0.001678	0.02243	0.015717	0.008392	0.004425	-0.02533	-0.43884	-0.030823	0.038605	-0.032654	0.11185	-0.12146	-0.002899	-0.066528	-0.012817	-0.69961	0.007324	-0.26962	-0.25726	-0.004578	-0.015869
28.533	0.027008	0.42267	-0.039673	0.020599	0.03952	-0.012207	-0.097961	-0.001984	0.23834	-0.063629	0.012665	-0.00473	0.047913	0.001526	0.003662	0.002747	-0.023651	-0.42068	0.06958	0.018921	0.059662	0.065308	-0.14313	0.017395	-0.058441	-0.016022	-0.13046	0.00061	-0.37354	-0.19913	-0.001221	-0.016022
28.534	0.023651	0.4277	-0.028992	-0.000763	0.025482	-0.013428	-0.1059	0.011139	0.23178	-0.086365	-0.005188	-0.002136	0.067444	0.00412	-0.003357	0.002441	-0.018005	-0.49957	0.40665	-0.000458	0.054169	-0.033264	-0.12344	-0.010834	-0.037537	-0.011139	0.17197	-0.005798	-0.81634	-0.085602	-0.002899	-0.00946
28.535	0.024719	0.44815	-0.044861	0.000458	-0.037231	0.005646	-0.094147	0.002899	0.22873	-0.089722	-0.001526	0.000153	0.092468	0.00885	-0.03418	-0.00351	0.002136	-0.51468	0.74646	-0.019531	0.031586	-0.002899	-0.001373	-0.012665	-0.072327	-0.010834	0.058136	-0.006256	-0.56458	0.066223	-0.004578	-0.006256
28.536	0.031738	0.46646	-0.076599	-0.010223	-0.02594	-0.011597	-0.098419	0.005341	0.22842	-0.063782	0.011902	-0.003204	0.054932	0.001373	-0.041046	0.003204	0.004425	-0.5127	0.91949	0.009766	0.01236	0.012207	0.031128	-0.065308	-0.089111	-0.00412	-0.2214	-0.009613	0.51773	0.21851	-0.00351	-0.005493
28.537	0.023956	0.50674	-0.077057	0.01358	0.060883	0.003662	-0.1091	0.006866	0.23346	-0.041504	-0.001678	0.008545	0.015869	-0.004883	-0.022583	-0.00061	0.00351	-0.53329	1.2108	-0.048676	0.014801	0.002136	-0.005035	-0.067596	-0.12161	-0.010986	-0.27466	0.002136	0.61691	-0.036469	-0.001678	0.000458
28.538	0.01709	0.56564	-0.10956	0.020752	0.036774	0.044403	-0.094757	0.015259	0.22797	-0.018616	-0.02243	-0.002136	0.005188	-0.012207	-0.015564	0.007019	0.002136	-0.52948	0.5339	-0.017242	0.007172	0.007172	0.010223	-0.159	-0.12329	-0.005188	-0.36652	-0.009003	0.55435	0.074463	-0.003662	-0.005493
28.539	0.023804	0.57877	-0.13031	0.019836	0.017242	0.037842	-0.11475	-0.005951	0.22903	0.014954	-0.008392	0.012817	0.014343	-0.03479	-0.020447	-0.002747	-0.002441	-0.53345	-0.031586	-0.001678	-0.001373	0.016022	0.032959	-0.12222	-0.090332	-0.002441	-0.28168	-0.010834	0.26916	-0.055695	0.001221	-0.004272
28.54	0.019379	0.61966	-0.13473	0.016174	-0.001373	0.055847	-0.12497	-0.005798	0.23331	-0.008698	0.025787	0.001221	0.028839	-0.042725	-0.015564	0.006104	-0.007935	-0.56702	0.11276	-0.018768	0.008392	0.014191	-0.010681	0.018616	-0.085907	0.00351	-0.20477	-0.027466	0.51376	-0.20142	-0.00351	-0.00885
28.541	0.019226	0.62195	-0.097504	0.002594	-0.007629	0.010834	-0.11139	0.008087	0.21484	-0.014801	0.023651	0.00473	0.031128	-0.020142	0.097809	0.011597	-0.027161	-0.54703	0.34943	-0.013123	0.025482	0.006866	-0.19119	0.10193	0.0177	0.014801	-0.088501	-0.034485	0.68848	-0.22675	-0.003052	-0.009766
28.542	0.031891	0.58929	0.036316	0.011444	-0.013885	-0.000153	-0.10956	0.005798	0.21591	-0.011597	0.025177	0.000153	0.007019	-0.006409	0.10452	0.003204	-0.001831	-0.55573	0.35629	0.028076	0.015411	-0.005646	-0.17609	0.14801	0.035248	0.000458	0.028534	-0.043945	-0.19775	-0.071106	-0.000763	-0.016174
28.543	0.02182	0.57022	0.053864	0.005798	0.015564	-0.00946	-0.10483	0.013123	0.20416	-0.019989	0.062256	-0.00412	-0.042572	-0.019073	0.030823	0.005188	-0.003052	-0.53741	0.41901	0.01236	0.006866	-0.00473	-0.19196	0.12497	-0.054169	-0.033875	0.10498	0.039063	-0.32684	-0.22293	-0.006561	-0.013123
28.544	0.036011	0.54367	0.12985	0.012512	0.016479	0.006866	-0.10788	0.001831	0.19165	-0.042572	0.093536	0.001678	-0.011902	-0.001068	-0.009918	-0.009155	0.002136	-0.50201	0.68848	-0.091858	0.024414	-0.008392	-0.3273	0.029602	-0.058289	-0.032959	0.046997	0.009613	0.22018	-0.33875	-0.002747	-0.007935
28.545	0.013885	0.48721	0.081635	0.010529	-0.003052	0.004883	-0.11108	0.004272	0.20462	-0.062561	0.033875	-0.005035	0.078888	-0.00824	-0.061951	0.007782	0.014343	-0.45487	0.38483	-0.056305	-0.00412	-0.014038	-0.34683	0.036011	-0.052948	-0.008545	-0.11444	0.002136	-0.021667	-0.18616	-0.004883	-0.007477
28.546	0.015411	0.40558	0.080566	-0.002899	-0.015259	0.037384	-0.11398	0.003052	0.19959	-0.068054	-0.079041	0.004578	0.12161	-0.006104	-0.11169	-0.00351	0.009766	-0.56442	0.26337	-0.039063	-0.057068	-0.0177	-0.26169	0.063782	-0.021515	0.009003	-0.1265	0.066071	-0.19165	0.032806	-0.001221	0
28.547	0.013123	0.36072	0.093079	-0.005341	-0.029907	0.037384	-0.11963	0.003357	0.18921	-0.037079	0.022583	0.000916	0.031281	-0.036621	-0.14633	-0.006561	0.001984	-0.56808	0.48019	-0.027924	-0.089722	0.020294	-0.2066	0.08606	-0.025024	-0.002594	0.051117	0.006256	-0.27878	0.11002	-0.001984	0.000305
28.548	0.008698	0.33112	0.14236	-0.016937	-0.035553	0.03952	-0.1033	0.008392	0.19913	-0.006561	0.089111	0.002136	0.013733	-0.049133	-0.17303	-0.009766	-0.015564	-0.5368	0.83832	-0.085907	-0.029144	0.098114	-0.088501	0.14908	-0.030823	-0.014648	0.1442	-0.027161	0.003815	-0.086975	-0.001678	-0.00824
28.549	0.011749	0.30533	0.077515	-0.002136	-0.058899	0.005188	-0.090179	0.00946	0.19028	-0.029144	0.067749	0.009766	0.002594	-0.041962	-0.066223	-0.007324	-0.013428	-0.48019	0.82169	-0.14694	0.035706	0.10101	-0.052643	0.10269	-0.009766	-0.018921	0.1445	-0.03418	0.23041	0.079346	-0.005493	-0.009155
28.55	0.015259	0.26291	0.011444	0.001984	0.033875	-0.023041	-0.088196	0.000458	0.18509	-0.033417	-0.13214	0.002594	0.000458	-0.031128	0.001373	-0.011597	0.002136	-0.42999	0.77347	-0.10498	0.020447	0.042419	-0.066376	0.065918	-0.05661	-0.010071	0.071106	-0.021667	0.29388	0.48355	-0.007782	-0.009613
28.551	0.024414	0.29373	-0.049286	0.001984	0.036011	-0.008392	-0.092621	0.001068	0.16632	-0.038757	-0.15503	-0.002899	0.02594	-0.012207	0.046082	0	-0.008545	-0.41214	0.35843	-0.031586	0.011139	0.007782	-0.18097	0.05127	-0.030212	-0.003204	-0.028687	0.004578	0.36346	0.25101	-0.001831	-0.007477
28.552	0.023041	0.29892	-0.081329	0.015106	0.024719	-0.008545	-0.094147	0.00351	0.15778	-0.068054	-0.049744	-0.003204	0.081024	-0.009918	0.02655	-0.000153	0.001373	-0.40619	0.16403	0.081024	-0.018005	-0.02182	-0.18188	-0.005341	-0.027924	-0.010071	-0.00946	0.016785	0.41351	0.19775	-0.002136	-0.007782
28.553	0.018616	0.29343	-0.096893	0.012512	0.003357	-0.004578	-0.10315	0.00061	0.14481	-0.062103	0.006104	0.004883	0.062103	-0.006409	-0.002289	0	0.007782	-0.36819	0.12573	0.21881	-0.023346	-0.055542	-0.14313	-0.022888	-0.019684	-0.009766	0.005341	0.006561	-0.58548	0.1918	-0.002747	-0.00061
28.554	0.014496	0.26566	-0.13229	0.00946	-0.009308	0.022125	-0.094452	0.002136	0.13794	-0.027008	0.067902	-0.007324	-0.005951	-0.016785	-0.031891	-0.001221	0.008545	-0.3952	-0.087585	0.1828	-0.013428	-0.054779	-0.072479	0.009918	0.00885	0.001831	0.11246	0.002594	-1.2413	0.14343	-0.002747	-0.001678
28.555	0.015717	0.23438	-0.15289	0.003052	0.004272	0.016785	-0.091705	0.007019	0.13123	-0.038452	0.0737	-0.001221	0.010529	-0.1181	-0.084534	0.004883	0.016327	-0.41122	-0.26474	0.1239	-0.023499	-0.040588	-0.12512	-0.036926	-0.010834	0.004883	0.12329	0.000763	0.49271	0.038605	-0.002289	-0.003357
